<?xml version="1.0" encoding="utf-8"?>
<!-- Generator: Adobe Illustrator 19.0.0, SVG Export Plug-In . SVG Version: 6.00 Build 0)  -->
<svg version="1.1" id="Warstwa_1" xmlns="http://www.w3.org/2000/svg" xmlns:xlink="http://www.w3.org/1999/xlink" x="0px" y="0px"
	 viewBox="56 320.9 707.1 200" style="enable-background:new 56 320.9 707.1 200;" xml:space="preserve">
<style type="text/css">
	.st0{fill:url(#XMLID_2_);}
	.st1{fill:#898888;}
</style>
<g>
	<linearGradient id="XMLID_2_" gradientUnits="userSpaceOnUse" x1="392.0577" y1="482.1916" x2="514.6609" y2="359.5884">
		<stop  offset="0" style="stop-color:#368670"/>
		<stop  offset="1" style="stop-color:#A6C307"/>
	</linearGradient>
	<path id="XMLID_307_" class="st0" d="M453.4,334.2c-47.9,0-86.7,38.8-86.7,86.7c0,47.9,38.8,86.7,86.7,86.7s86.7-38.8,86.7-86.7
		C540.1,373,501.2,334.2,453.4,334.2z M453.4,487.1c-36.5,0-66.2-29.6-66.2-66.2c0-36.5,29.6-66.2,66.2-66.2s66.2,29.6,66.2,66.2
		C519.5,457.4,489.9,487.1,453.4,487.1z"/>
	<g>
		<path class="st1" d="M211.8,386.5c9.9,9.9,14.9,22,14.9,36c0,14-5,26-14.9,36c-9.9,9.9-21.9,14.9-36,14.9c-14.1,0-26.1-5-36-14.9
			c-9.9-9.9-14.9-21.9-14.9-36c0-14.1,5-26.1,14.9-36c9.9-9.9,22-14.9,36-14.9C189.9,371.6,201.9,376.5,211.8,386.5z M175.8,385.1
			c-10.3,0-19.1,3.7-26.4,11c-7.3,7.3-11,16.1-11,26.4c0,10.3,3.7,19.1,11,26.4c7.3,7.3,16.1,10.9,26.4,10.9
			c10.3,0,19.1-3.6,26.4-10.9c7.3-7.3,10.9-16.1,10.9-26.4c0-10.3-3.6-19.1-10.9-26.4C194.9,388.8,186.1,385.1,175.8,385.1z"/>
		<path class="st1" d="M312.5,464.8c0.5,1.8,0.3,3.5-0.6,5.1c-0.9,1.7-2.3,2.7-4.1,3.2c-1.8,0.5-3.5,0.3-5.1-0.6l-45.2-21.9
			c-1.7-0.9-2.7-2.3-3.2-4.1c-0.5-1.8-0.3-3.5,0.6-5.2c1.3-2.3,3.3-3.4,5.9-3.4h16.7c7.3,0,13.5-2.6,18.6-7.8
			c5.2-5.1,7.8-11.4,7.8-18.6c0-7.3-2.6-13.6-7.8-18.7c-5.1-5.2-11.4-7.8-18.6-7.8c-7.3,0-13.6,2.6-18.7,7.8
			c-5.2,5.1-7.8,11.4-7.8,18.7v55.1c0,1.9-0.7,3.5-2,4.8c-1.3,1.3-2.9,2-4.8,2c-1.9,0-3.5-0.7-4.8-2c-1.3-1.3-2-2.9-2-4.8v-55.1
			c0-11.1,3.9-20.5,11.7-28.3c7.8-7.8,17.2-11.7,28.3-11.7c11,0,20.5,3.9,28.3,11.7c7.8,7.8,11.7,17.3,11.7,28.3
			c0,11-3.9,20.5-11.7,28.3c-5.7,5.7-12.2,9-19.5,10l23.1,10.9C310.9,461.6,312,463,312.5,464.8z"/>
		<path class="st1" d="M346.9,466.7c0,1.9-0.7,3.5-2,4.9c-1.3,1.3-2.9,1.9-4.8,1.9c-1.9,0-3.5-0.6-4.8-1.9c-1.3-1.3-2-3-2-4.9v-88.3
			c0-1.9,0.7-3.4,2-4.8c1.3-1.3,2.9-2,4.8-2c1.9,0,3.5,0.7,4.8,2c1.3,1.3,2,2.9,2,4.8V466.7z"/>
		<path class="st1" d="M569.2,466.7c0,1.9-0.7,3.5-2,4.9c-1.3,1.3-2.9,1.9-4.8,1.9c-1.9,0-3.5-0.6-4.8-1.9c-1.3-1.3-2-3-2-4.9v-77.5
			c0-5,2-9.3,6-12.8c0.1-0.1,0.3-0.3,0.5-0.4c3.6-2.9,7.8-4.4,12.6-4.4c4.1,0,7.8,1.1,11.1,3.3c3.4,2.2,5.8,5.3,7.4,9.1l27.6,71.4
			c0.7,1.7,1.6,2.9,2.6,3.6c0.9,0.6,2.1,0.9,3.6,0.9c1.8,0,3.3-0.5,4.5-1.4c0.7-0.5,1.1-1.5,1.1-3.1v-77c0-1.9,0.7-3.4,2-4.8
			c1.3-1.3,2.9-2,4.8-2c1.9,0,3.5,0.7,4.8,2c1.3,1.3,2,2.9,2,4.8v78.5c0,4.9-2.1,9-6.2,12.3c-3.7,2.9-8,4.4-12.9,4.4
			c-4.4,0-8.3-1.2-11.6-3.5h0.1c-3.1-2.2-5.5-5.4-7.2-9.4c-2.9-7.2-7.5-19.2-13.8-35.8c-5.8-15.5-10.4-27.4-13.9-35.8
			c-0.5-1.1-1.2-2.1-2.3-2.8c-1-0.7-2.1-1-3.6-1c-1.6,0-3,0.4-4,1.2l-0.2,0.2c-0.9,0.8-1.4,1.9-1.4,3.3V466.7z"/>
	</g>
</g>
</svg>
