<svg xmlns="http://www.w3.org/2000/svg" xmlns:xlink="http://www.w3.org/1999/xlink" width="286.535" height="98.912" viewBox="0 0 286.535 98.912">
  <defs>
    <linearGradient id="linear-gradient" x1="0.146" y1="0.854" x2="0.854" y2="0.146" gradientUnits="objectBoundingBox">
      <stop offset="0" stop-color="#368670"/>
      <stop offset="1" stop-color="#a6c307"/>
    </linearGradient>
  </defs>
  <g id="Group_23" data-name="Group 23" transform="translate(-1668 130)">
    <g id="Group_22" data-name="Group 22" transform="translate(1661.418 -156.544)">
      <path id="Path_3" data-name="Path 3" d="M187.135,26.544A49.456,49.456,0,1,0,236.592,76,49.453,49.453,0,0,0,187.135,26.544Zm0,87.209A37.749,37.749,0,1,1,224.881,76,37.753,37.753,0,0,1,187.135,113.753Z" fill="url(#linear-gradient)"/>
      <g id="Group_21" data-name="Group 21">
        <path id="Path_4" data-name="Path 4" d="M56.184,56.377a28.022,28.022,0,0,1,8.511,20.566,27.972,27.972,0,0,1-8.511,20.525,27.973,27.973,0,0,1-20.525,8.511,28.017,28.017,0,0,1-20.565-8.511A27.97,27.97,0,0,1,6.582,76.943a28.019,28.019,0,0,1,8.512-20.566,28.017,28.017,0,0,1,20.565-8.511A27.972,27.972,0,0,1,56.184,56.377ZM35.659,55.6a20.46,20.46,0,0,0-15.068,6.271,21.236,21.236,0,0,0,0,30.136,20.526,20.526,0,0,0,15.068,6.23,20.613,20.613,0,0,0,15.068-6.23,21.334,21.334,0,0,0,0-30.136A20.547,20.547,0,0,0,35.659,55.6Z" fill="#898888"/>
        <path id="Path_5" data-name="Path 5" d="M113.646,101.051a3.9,3.9,0,0,1-2.688,4.765,3.685,3.685,0,0,1-2.933-.326l-25.778-12.5a3.575,3.575,0,0,1-1.832-2.321,3.794,3.794,0,0,1,.325-2.973,3.626,3.626,0,0,1,3.38-1.955h9.53a15.157,15.157,0,0,0,15.068-15.067A15.061,15.061,0,0,0,82.98,60a14.463,14.463,0,0,0-4.439,10.67V102.11a3.724,3.724,0,0,1-1.14,2.729,3.638,3.638,0,0,1-2.728,1.14A3.892,3.892,0,0,1,70.8,102.11V70.672A22.8,22.8,0,0,1,93.65,47.825a22.8,22.8,0,0,1,22.805,22.847A21.967,21.967,0,0,1,109.776,86.8a18.936,18.936,0,0,1-11.117,5.7l13.154,6.23A3.759,3.759,0,0,1,113.646,101.051Z" fill="#898888"/>
        <path id="Path_6" data-name="Path 6" d="M133.233,102.11a3.771,3.771,0,0,1-1.139,2.77,3.713,3.713,0,0,1-2.729,1.1,3.825,3.825,0,0,1-3.869-3.869V51.735a3.894,3.894,0,0,1,3.869-3.869,3.646,3.646,0,0,1,2.729,1.14,3.725,3.725,0,0,1,1.139,2.729Z" fill="#898888"/>
        <path id="Path_7" data-name="Path 7" d="M249.216,102.11a3.772,3.772,0,0,1-1.14,2.77,3.709,3.709,0,0,1-2.728,1.1,3.823,3.823,0,0,1-3.869-3.869V57.884a9.3,9.3,0,0,1,3.42-7.29,2.7,2.7,0,0,1,.286-.244,11.641,11.641,0,0,1,13.52-.611,10.927,10.927,0,0,1,4.194,5.172L278.66,95.635a4.7,4.7,0,0,0,1.466,2.077,3.619,3.619,0,0,0,2.077.529,3.982,3.982,0,0,0,2.566-.814,2.062,2.062,0,0,0,.61-1.751V51.735a3.723,3.723,0,0,1,1.141-2.729,3.64,3.64,0,0,1,2.728-1.14,3.892,3.892,0,0,1,3.869,3.869V96.49a8.6,8.6,0,0,1-3.544,7.005,11.512,11.512,0,0,1-7.37,2.484,11.1,11.1,0,0,1-6.6-1.995h.041a12.416,12.416,0,0,1-4.113-5.376q-2.484-6.189-7.86-20.443-4.97-13.276-7.941-20.4a3.549,3.549,0,0,0-1.3-1.589,3.473,3.473,0,0,0-2.036-.569,3.625,3.625,0,0,0-2.281.692l-.122.122a2.313,2.313,0,0,0-.774,1.873Z" fill="#898888"/>
      </g>
    </g>
  </g>
</svg>
