<?xml version="1.0" encoding="utf-8"?>
<!-- Generator: Adobe Illustrator 19.0.0, SVG Export Plug-In . SVG Version: 6.00 Build 0)  -->
<svg version="1.1" id="Layer_1" xmlns="http://www.w3.org/2000/svg" xmlns:xlink="http://www.w3.org/1999/xlink" x="0px" y="0px"
	 viewBox="-147 345.9 300 150" style="enable-background:new -147 345.9 300 150;" xml:space="preserve">
<style type="text/css">
	.st0{clip-path:url(#SVGID_2_);}
	.st1{fill:#FFFFFF;}
	.st2{fill:url(#Path_3_1_);}
	.st3{fill:#898888;}
	.st4{fill:none;}
</style>
<g>
	<defs>
		<rect id="SVGID_1_" x="-147" y="345.9" width="300" height="150"/>
	</defs>
	<clipPath id="SVGID_2_">
		<use xlink:href="#SVGID_1_"  style="overflow:visible;"/>
	</clipPath>
	<g id="Artboard_1" class="st0">
		<rect x="-147" y="345.9" class="st1" width="300" height="150"/>
		<g id="Group_18">
			
				<linearGradient id="Path_3_1_" gradientUnits="userSpaceOnUse" x1="-292.3674" y1="837.4284" x2="-291.6594" y2="838.1364" gradientTransform="matrix(98.912 0 0 -98.912 28923.8086 83288.5781)">
				<stop  offset="0" style="stop-color:#368670"/>
				<stop  offset="1" style="stop-color:#A6C307"/>
			</linearGradient>
			<path id="Path_3" class="st2" d="M40.1,372.4c-27.3,0-49.5,22.1-49.5,49.5c0,27.3,22.1,49.5,49.5,49.5
				c27.3,0,49.5-22.1,49.5-49.5C89.6,394.6,67.5,372.4,40.1,372.4C40.1,372.4,40.1,372.4,40.1,372.4z M40.1,459.6
				c-20.8,0-37.8-16.9-37.8-37.7s16.9-37.8,37.7-37.8c20.8,0,37.7,16.9,37.8,37.7C77.9,442.7,61,459.6,40.1,459.6z"/>
			<g id="Group_17">
				<path id="Path_4" class="st3" d="M-90.8,402.3c5.6,5.4,8.6,12.8,8.5,20.6c0.1,7.7-3,15.2-8.5,20.5c-5.4,5.5-12.8,8.6-20.5,8.5
					c-7.7,0.1-15.2-3-20.6-8.5c-5.5-5.4-8.6-12.8-8.5-20.5c-0.1-7.7,3-15.2,8.5-20.6c5.4-5.6,12.8-8.6,20.6-8.5
					C-103.6,393.6-96.2,396.7-90.8,402.3z M-111.3,401.5c-5.7-0.1-11.1,2.2-15.1,6.3c-8.3,8.3-8.4,21.7-0.1,30c0,0,0.1,0.1,0.1,0.1
					c3.9,4.1,9.4,6.3,15.1,6.2c5.7,0.1,11.1-2.2,15.1-6.2c8.3-8.3,8.3-21.8,0-30.1C-100.2,403.7-105.7,401.4-111.3,401.5z"/>
				<path id="Path_5" class="st3" d="M-33.4,446.9c0.6,2.1-0.6,4.2-2.7,4.8c-1,0.3-2,0.2-2.9-0.3l-25.8-12.5
					c-0.9-0.5-1.6-1.3-1.8-2.3c-0.3-1-0.2-2.1,0.3-3c0.6-1.3,2-2,3.4-2h9.5c8.3,0,15-6.8,15.1-15.1c0-8.3-6.7-15.1-15-15.1
					c-4,0-7.9,1.6-10.7,4.4c-2.9,2.8-4.5,6.7-4.4,10.7V448c0,1-0.4,2-1.1,2.7c-0.7,0.7-1.7,1.2-2.7,1.1c-2.1,0-3.9-1.7-3.9-3.9
					v-31.4c0-12.6,10.2-22.8,22.8-22.8c0,0,0.1,0,0.1,0c12.6,0,22.8,10.2,22.8,22.8c0,0,0,0,0,0.1c0.1,6.1-2.3,11.9-6.7,16.1
					c-3,3.1-6.9,5.1-11.1,5.7l13.2,6.2C-34.3,445.1-33.6,445.9-33.4,446.9z"/>
				<path id="Path_6" class="st3" d="M-13.8,448c0,1-0.4,2-1.1,2.8c-0.7,0.7-1.7,1.1-2.7,1.1c-2.1,0-3.8-1.7-3.9-3.8
					c0,0,0-0.1,0-0.1v-50.4c0-2.1,1.7-3.9,3.9-3.9c1,0,2,0.4,2.7,1.1c0.7,0.7,1.2,1.7,1.1,2.7V448z"/>
				<path id="Path_7" class="st3" d="M102.2,448c0,1-0.4,2-1.1,2.8c-0.7,0.7-1.7,1.1-2.7,1.1c-2.1,0-3.8-1.7-3.9-3.8
					c0,0,0-0.1,0-0.1v-44.2c0-2.8,1.2-5.5,3.4-7.3c0.1-0.1,0.2-0.2,0.3-0.2c3.9-3.1,9.3-3.3,13.5-0.6c1.9,1.2,3.4,3.1,4.2,5.2
					l15.8,40.7c0.3,0.8,0.8,1.5,1.5,2.1c0.6,0.4,1.3,0.6,2.1,0.5c0.9,0,1.8-0.3,2.6-0.8c0.5-0.5,0.7-1.1,0.6-1.8v-43.9
					c0-1,0.4-2,1.1-2.7c0.7-0.7,1.7-1.2,2.7-1.1c2.1,0,3.9,1.7,3.9,3.9v44.8c0,2.8-1.3,5.4-3.5,7c-2.1,1.7-4.7,2.5-7.4,2.5
					c-2.4,0.1-4.7-0.6-6.6-2h0c-1.8-1.4-3.3-3.2-4.1-5.4c-1.7-4.1-4.3-10.9-7.9-20.4c-3.3-8.9-6-15.7-7.9-20.4
					c-0.3-0.6-0.7-1.2-1.3-1.6c-0.6-0.4-1.3-0.6-2-0.6c-0.8,0-1.6,0.2-2.3,0.7l-0.1,0.1c-0.5,0.5-0.8,1.2-0.8,1.9L102.2,448z"/>
			</g>
			<rect id="Rectangle_41" x="-147" y="345.9" class="st4" width="300" height="150"/>
		</g>
	</g>
</g>
</svg>
