<svg xmlns="http://www.w3.org/2000/svg" viewBox="0 0 248.97 292.83"><defs><style>.cls-1{fill:#c23d64;}.cls-2{fill:#d793a3;}.cls-3{fill:#621677;}.cls-4{fill:#fff;}</style></defs><title>Recurso 3</title><g id="Capa_2" data-name="Capa 2"><g id="Capa_1-2" data-name="Capa 1"><path class="cls-1" d="M248.68,148.49l.09.68c.4,1-.12,2-.17,3-2.69,7.18-8.09,11.14-15.36,12.76a64.88,64.88,0,0,1-14.8,1.15c-4.46,0-8.92.78-13.38,1.11a5.28,5.28,0,0,0-3.32,1.06c2.2.74,4.13.28,6,.08,4.86-.55,5.58.09,5.22,5-.73,9.68-.88,19.39-1.49,29.08-.75,11.76-1.08,23.53-1.81,35.29-.29,4.72-.48,9.45-.69,14.18-.28,6.54-.31,13.1-1.2,19.62a3.14,3.14,0,0,1-1.26,2,8.89,8.89,0,0,1-3.44.32H107.75a9.85,9.85,0,0,1-3.46-.29,2.52,2.52,0,0,1-1.22-1.51c-1.09-6-1-12.07-1.25-18.11-.65-13.17-1.39-26.34-1.93-39.52-.34-8.37-1.07-16.73-1.13-25.12,0-3.64-.94-7.26-.34-10.92.31-1.84,1-3.62.81-5.53,0,.7.27,1.43-.28,2.08-1.07-.28-1.09-1.21-1.06-2,.06-1.84-.45-3-2.57-3-.61,0-1.35-.2-1.34-1.12,1.14-.4,2.33-.11,3.61-.2a9.82,9.82,0,0,0-5.39.82,69.8,69.8,0,0,1-12.93-.08A15.39,15.39,0,0,0,77,169.1c-7.48.29-14.92-.78-22.4-.54-1.21,0-2.53.21-3.51-.84,1.32-1.51,3-.11,4.08-.66-1.83,0-4-.25-6,.73a69.55,69.55,0,0,1-13.38-.09,29.68,29.68,0,0,0-4.71-.17,68.67,68.67,0,0,1-15.82-1.16C7.92,165,2.93,160.62.33,153.6a14.58,14.58,0,0,1-.31-3v-7.76a7.1,7.1,0,0,1,.2-2.34,14.44,14.44,0,0,1,4.11-7.27c6.51-6.65,12.92-13.39,19.4-20.07q6.76-7,13.56-13.93c1.05-1.07,2.07-2.12,3.72-2.3,1-.1,1.52-1,2.16-1.6C48,90.44,53,85.66,57.54,80.45c.38-.44,1.05-.84,1-1.4-.35-2.33,1.36-3.44,2.7-4.73C66.77,69,71.94,63.22,77.3,57.65c1.38-1.3,2.68-2.69,4-4,.89-.84,1.9-1.15,2.89-.33,3.94,3.25,8.21,6.09,11.79,9.78.54,1.3-.28,2.23-.91,3.19-9.19,14-18.25,28.14-27.41,42.19-2.4,3.67-4.76,7.36-7.29,11.23a8.76,8.76,0,0,0,3.93-.15c13.36-2.13,26.69-4.4,40.07-6.43a4.52,4.52,0,0,0,1-.2c9.32-3.63,19-1.77,28.61-2.15a2.41,2.41,0,0,1,1.42.39c1,1.4,1,3.13,1.42,4.71a16.62,16.62,0,0,0,17,12.58,17,17,0,0,0,16.35-15,3.33,3.33,0,0,1,.69-2.32,6.43,6.43,0,0,1,3.41-.45q8.82,0,17.64,0c1.48,0,2.55-.16,1.73-2.08-4.69-11.07-8.84-22.35-13.6-33.38-1.76-4.91-3.83-9.7-5.74-14.55-.62-1.71-1.35-3.38-2-5.1a1.71,1.71,0,0,1,.12-1.88c.56-.59,1.21-.32,1.85-.13,6.4,1.84,8.51,1,11.87-4.9a3.37,3.37,0,0,1,3-1.9c2.31,2.24,4.45,4.61,4.75,8a4.85,4.85,0,0,0,1,2.25c5.51,8.8,11.33,17.41,17,26.14,4.9,7.61,9.91,15.16,14.82,22.77a5.34,5.34,0,0,0,2.82,2.67c.93.29,1.38,1.16,1.89,1.92,5.3,8,10.44,16.21,15.79,24.23a10.32,10.32,0,0,1,1.52,3.67,9.68,9.68,0,0,1,.21,2.84C248.78,143.71,249.23,146.11,248.68,148.49Z"/><path class="cls-2" d="M183.77,33.55A30.06,30.06,0,0,0,189.25,47a4.86,4.86,0,0,0-3,3c-1.93,4.74-7,6.51-11.74,4.37-.55-.24-1.13-1-1.75-.38s.09,1.24.29,1.82c.52,1.56,1.15,3.09,1.73,4.63-.43,2.84-2.59,3.92-5,4.54-1.68.44-2.2,1.27-2.3,2.94q-.28,5.31-.88,10.61c-.33,2.95-.19,3.06,2.59,3.87.65.2,1.3.37,1.29,1.24-.15,3.49.11,7,.3,10.44.27,4.89.79,9.76.78,14.67a4.32,4.32,0,0,1-.55,2.63,17.9,17.9,0,0,1-15,17.54c-10.63,1.56-20.08-5.85-20.7-17.54a18.36,18.36,0,0,1-.84-9.63c.7-1.12,1.86-1,2.9-1,10.48.13,19.39-9,19.88-19.39.38-8.27,1.27-16.52,2-24.78a8.22,8.22,0,0,1,6.85-7.86c2.26-.48,2-1.17,1-2.68-2.22-3.4-4.35-6.87-6.52-10.31-2.6-4.14-3.34-8.45-.84-13,2.41-4.33,6.14-6.57,11-6.3s8.68,2.7,10.58,7.44A40.23,40.23,0,0,1,183.77,33.55Z"/><path class="cls-2" d="M104.08,41.41c1.64,3.76,1,7.28-1.21,10.59-2.45,3.64-4.94,7.24-7.41,10.87-3.56-2.8-7.21-5.48-10.63-8.44-1.59-1.37-2.52-1.23-3.77.27a47.92,47.92,0,0,1-3.52,3.46,132.67,132.67,0,0,1,6-17.92c2-4.69,8.67-8.52,16-4.62a4.73,4.73,0,0,1,1.89.8C102.66,37.89,104.76,38.9,104.08,41.41Z"/><path class="cls-3" d="M180.6,74.94c-.21,3.77-1.27,7-5.37,8.23-1.72.53-3.43.13-5.16.11-4.46-.64-4.45-.64-4-5.29.33-3.78.66-7.57.89-11.36.09-1.38.46-2,2-2.15,2.69-.18,4.44-2,5.89-4.06C176.88,65.2,178.92,70,180.6,74.94Z"/><path class="cls-3" d="M103.64,273.86l103.52,0c-.14,6.57-1,13-3.91,19a5.18,5.18,0,0,0-1.35-.36q-46.52-.06-93,0a4.9,4.9,0,0,0-1.35.36C104.54,286.85,103.81,280.41,103.64,273.86Z"/><path class="cls-3" d="M104.08,41.41c-.36-2-1.9-3.33-3.12-4.82a2.18,2.18,0,0,1-.83-1.67c-2.56-7.9-1-14.7,5.43-20.19a2.77,2.77,0,0,0,1-2.14c.12-2.15.28-4.3.5-6.44.37-3.52,2.09-5.45,5.41-6.15a10.06,10.06,0,0,0,3.05,0,78.57,78.57,0,0,1,12.54,1,1.62,1.62,0,0,0,1.91.06c4.65.35,9.54-.27,13.4,3.3.74.69,1.18,0,1.7-.36C151.4,0,158.32,2.16,161,9.2a2.06,2.06,0,0,0,2.17,1.49c4.63.35,9.26.66,13.87,1.18,5.32.59,8.1,3.91,7.8,9.29-.23,4.13-.7,8.26-1.06,12.39-1.33-2.79-1.67-5.89-2.74-8.76a11.35,11.35,0,0,0-22,1.81c-.58,3.3.48,6.22,2.23,9,2.5,3.92,5,7.86,7.44,11.8.34.55.91,1.16.54,1.81s-1,0-1.53-.08c-3.82-.24-7.4,3.2-7.77,7.6-.69,8.1-1.61,16.21-1.9,24.33-.42,11.84-10.43,21.24-22.15,20.39a6.77,6.77,0,0,0-1,0c-6.16-.53-12.32-1.09-18.49-1.58-5.94-.46-9.83-3.77-10.41-9a3.83,3.83,0,0,0,0-3q1.55-12.47,3.1-24.91a3,3,0,0,1,2.79-.67c9.08,1,18.19,1.4,27.27,2.3a31.88,31.88,0,0,0,3.24.1c5.55,0,8.44-2.31,9-7.81.92-8.67,1.27-17.39,2.2-26.05a1.62,1.62,0,0,0-.44-1.51c-2.05.9-4,2.15-6.18,3-4.36,1.6-8.84,1.26-13.29.85-5-.47-10.1-.67-15.12-1.29-3.43-.43-4.07,0-5,3.28a52.6,52.6,0,0,0-1,6.13c-.2,1.32.06,2.9-1.47,3.73C108.41,44.59,106.43,42.64,104.08,41.41Z"/><path class="cls-2" d="M111.16,45c1.14-3.82,1-7.87,2.2-11.69.65-2,1.53-2.53,3.54-2.34,6.77.64,13.56,1,20.33,1.67a22,22,0,0,0,15.89-4.39c.27-.2.55-.38.83-.56.05,0,.15,0,.41,0,.3,2.68-.28,5.35-.48,8-.56,7.45-1.13,14.89-1.91,22.32a7.93,7.93,0,0,1-8.87,7.47c-8-.49-16-1.22-24.06-1.83-3.31-.26-6.62-.47-9.92-.7Z"/><path class="cls-4" d="M127.45,78.36c-3.93-.3-7.65-.69-11.38-.84-1.8-.07-1.81-.87-1.42-2.19a7.85,7.85,0,0,1,7.76-5.47,8,8,0,0,1,7.43,6.27C130.4,78.66,129,78.69,127.45,78.36Z"/></g></g></svg>